<?xml version="1.0" encoding="UTF-8"?>
<svg xmlns="http://www.w3.org/2000/svg" xmlns:xlink="http://www.w3.org/1999/xlink" width="150pt" height="150pt" viewBox="0 0 150 150" version="1.1">
<g id="surface11488507">
<path style=" stroke:none;fill-rule:nonzero;fill:rgb(90.588236%,29.803923%,23.529412%);fill-opacity:1;" d="M 131.449219 3 C 129.632812 3.03125 86.699219 3.980469 68.761719 30.328125 L 37.171875 86.636719 C 34.847656 90.75 36.128906 95.988281 40.074219 98.5625 L 79.144531 124.488281 C 80.675781 125.5 82.4375 125.984375 84.183594 125.984375 C 86.871094 125.984375 89.535156 124.832031 91.308594 122.65625 L 132.289062 72.550781 C 132.34375 72.484375 132.398438 72.417969 132.445312 72.347656 C 139.019531 62.703125 141.046875 51.230469 141 40.5 C 140.921875 22.136719 134.707031 5.953125 134.292969 4.898438 C 133.832031 3.742188 132.644531 3.109375 131.449219 3 Z M 100.476562 36 C 103.65625 35.992188 106.867188 36.898438 109.707031 38.804688 C 117.269531 43.890625 119.277344 54.140625 114.195312 61.703125 C 109.109375 69.269531 98.859375 71.277344 91.296875 66.191406 C 83.730469 61.109375 81.722656 50.859375 86.808594 43.292969 C 89.984375 38.566406 95.179688 36.011719 100.476562 36 Z M 46.921875 57.03125 C 31.351562 57.417969 19.109375 63.691406 9.597656 76.171875 C 8.90625 77.101562 8.820312 78.296875 9.296875 79.320312 C 9.808594 80.339844 10.859375 81 12 81 L 17.25 81 C 21.449219 81 26.878906 81.417969 32.308594 83.039062 Z M 114.539062 103.617188 C 104.460938 115.886719 94.738281 127.707031 94.078125 128.335938 C 98.15625 134.246094 100.441406 140.371094 101.96875 144.507812 L 102.179688 145.046875 C 102.570312 146.070312 103.46875 146.820312 104.546875 146.96875 C 104.699219 147 104.851562 147 105 147 C 105.929688 147 106.832031 146.578125 107.402344 145.828125 C 114.121094 136.949219 117 128.339844 117 117 C 117 112.050781 115.949219 107.515625 114.539062 103.617188 Z M 40.273438 105.878906 C 33.820312 116.5 28.839844 138.738281 38.296875 145.222656 C 40.023438 146.40625 42.078125 147.003906 44.4375 147.003906 C 45.453125 147.003906 46.53125 146.890625 47.65625 146.671875 C 56.898438 144.855469 68.378906 135.726562 73.675781 128.074219 L 67.453125 123.9375 C 61.636719 129.554688 52.8125 134.34375 47.589844 130.84375 C 42.367188 127.324219 43.316406 117.363281 46.261719 109.855469 Z M 40.273438 105.878906 "/>
</g>
</svg>
